<svg width="19" height="32" viewBox="0 0 19 32" fill="none" xmlns="http://www.w3.org/2000/svg">
<path fill-rule="evenodd" clip-rule="evenodd" d="M6.04004 30.36C7.21332 31.0266 8.56 31.36 10.08 31.36C11.6266 31.36 13.0533 31.0133 14.36 30.3199C15.6667 29.6 16.7067 28.5732 17.48 27.24C18.28 25.9066 18.68 24.3066 18.68 22.4399C18.68 20.6533 18.3067 19.12 17.56 17.84C16.84 16.5333 15.8667 15.52 14.64 14.7999C13.4133 14.08 12.0533 13.72 10.56 13.72C9.04004 13.72 7.65332 14.0133 6.40002 14.6C5.24518 15.1271 4.3385 15.808 3.67999 16.6425V0H0V30.96H3.72003V28.4233C4.34778 29.1802 5.12115 29.8257 6.04004 30.36ZM12.2 27.4399C11.3467 27.9467 10.3867 28.2 9.32001 28.2C8.35999 28.2 7.49335 28.0266 6.72003 27.6799C5.94666 27.3066 5.3067 26.8134 4.79999 26.2C4.29333 25.5599 3.93335 24.84 3.72003 24.0399V20.72C3.93335 19.9199 4.3067 19.2267 4.84003 18.64C5.37335 18.0266 6.02667 17.5466 6.79999 17.2C7.57336 16.8533 8.41333 16.6799 9.32001 16.6799C10.3867 16.6799 11.3333 16.9333 12.16 17.4399C13.0134 17.9467 13.68 18.64 14.16 19.52C14.6667 20.3733 14.92 21.3333 14.92 22.3999C14.92 23.52 14.68 24.52 14.2 25.3999C13.72 26.2533 13.0533 26.9333 12.2 27.4399Z" fill="black"/>
</svg>
