<svg width="128" height="128" viewBox="0 0 128 128" fill="none" xmlns="http://www.w3.org/2000/svg">
  <path d="M29.5373 49.2277C29.5373 65.5403 16.3134 98.2163 1.67544e-05 98.2163L1.6765e-05 98.4578C13.0565 98.4578 25.5782 93.2713 34.8107 84.0391C44.0432 74.807 49.2302 62.2856 49.2307 49.229C49.2307 41.3951 52.3427 33.8819 57.8821 28.3422C63.4215 22.8025 70.9347 19.6905 78.7686 19.6905C86.6024 19.6887 94.1169 22.7994 99.6572 28.3379C105.198 33.8764 108.311 41.389 108.313 49.2228C108.314 57.0573 105.204 64.5711 99.6652 70.1117C94.1267 75.6523 86.6141 78.7659 78.7803 78.7675C72.315 78.7676 65.9132 80.0412 59.9405 82.5155C53.9675 84.9897 48.5404 88.6162 43.969 93.1879C39.3976 97.7596 35.7715 103.187 33.2976 109.16C30.8237 115.133 29.5506 121.535 29.5508 128L29.7905 128C29.7905 111.69 62.4523 98.4657 78.768 98.4596L78.768 98.4627C88.5052 98.4628 98.0233 95.5756 106.119 90.1663C114.215 84.7569 120.525 77.0683 124.252 68.0726C127.978 59.077 128.954 49.1785 127.054 39.6283C125.155 30.0788 120.466 21.3065 113.582 14.421C106.697 7.53607 97.9255 2.84684 88.3753 0.946533C78.8258 -0.953773 68.9273 0.0209977 59.9313 3.74653C50.9354 7.47207 43.2462 13.7816 37.8361 21.877C32.426 29.973 29.538 39.4911 29.5373 49.2277Z" fill="url(#paint0_linear_1_3)"/>
  <defs>
    <linearGradient id="paint0_linear_1_3" x1="110.72" y1="25.9841" x2="8.57601" y2="100.352" gradientUnits="userSpaceOnUse">
      <stop offset="0.295" stop-color="#E73959"/>
      <stop offset="0.384" stop-color="#E73D58"/>
      <stop offset="0.477" stop-color="#E74955"/>
      <stop offset="0.571" stop-color="#E95E51"/>
      <stop offset="0.666" stop-color="#EA7B4B"/>
      <stop offset="0.761" stop-color="#EDA044"/>
      <stop offset="0.857" stop-color="#EFCE3B"/>
      <stop offset="0.868" stop-color="#F0D43A"/>
    </linearGradient>
  </defs>
</svg>
